<svg width="48" height="37" viewBox="0 0 48 37" xmlns="http://www.w3.org/2000/svg"><g fill-rule="nonzero" fill="#FFF"><path d="M42.863 36.981c1.058 0 1.975-.349 2.754-1.039L32.283 22.607l-.923.664a61.498 61.498 0 0 1-2.43 1.72c-.622.412-1.45.832-2.482 1.26-1.033.43-1.996.644-2.89.644H23.507c-.893 0-1.856-.214-2.889-.643-1.033-.429-1.86-.849-2.482-1.26a61.856 61.856 0 0 1-2.43-1.721c-.278-.204-.586-.428-.92-.667L1.448 35.942c.78.69 1.697 1.04 2.754 1.04h38.661zM2.653 14.21A13.925 13.925 0 0 1 0 11.925v20.288L11.753 20.46a908.6 908.6 0 0 0-9.1-6.25zM44.44 14.21a773.659 773.659 0 0 0-9.123 6.255l11.749 11.749V11.925a14.495 14.495 0 0 1-2.627 2.285z"/><path d="M42.863.001H4.203c-1.35 0-2.386.456-3.113 1.366C.363 2.277 0 3.415 0 4.78c0 1.103.482 2.298 1.445 3.585.963 1.287 1.987 2.298 3.073 3.033.595.42 2.39 1.669 5.384 3.743 1.617 1.12 3.022 2.097 4.23 2.94 1.03.717 1.918 1.338 2.651 1.854a363.496 363.496 0 0 1 1.116.801c.57.411 1.042.744 1.419.998.376.254.831.538 1.366.854a7.968 7.968 0 0 0 1.51.709c.473.157.91.236 1.313.236h.053c.402 0 .84-.079 1.313-.236a7.95 7.95 0 0 0 1.51-.71c.534-.315.989-.6 1.366-.853.377-.254.85-.587 1.418-.998a176.161 176.161 0 0 1 1.117-.801A24772.873 24772.873 0 0 1 42.576 11.4a12.492 12.492 0 0 0 3.204-3.23c.856-1.261 1.286-2.583 1.286-3.966 0-1.156-.417-2.145-1.248-2.969C44.986.413 44.001.001 42.863.001z"/></g></svg>