<svg width="44" height="37" viewBox="0 0 44 37" xmlns="http://www.w3.org/2000/svg"><path d="M41.176.144c1.532-.595 3.115.743 2.778 2.349l-6.87 32.787c-.322 1.538-2.13 2.23-3.4 1.3L23.31 28.978l-5.287 5.388c-.927.946-2.53.563-2.929-.7l-3.816-12.086-10.226-3.014c-1.342-.396-1.42-2.263-.117-2.77L41.176.144zm-5.045 7.277c.447-.395-.072-1.093-.58-.778L13.478 20.308c-.389.24-.566.712-.43 1.148l2.961 9.524c.062.2.354.172.378-.036l.72-6.386c.027-.246.146-.474.332-.639L36.131 7.421z" fill="#FFF" fill-rule="evenodd"/></svg>