<svg width="309" height="309" viewBox="0 0 309 309" xmlns="http://www.w3.org/2000/svg"><g fill="none" fill-rule="evenodd"><path d="M300.96 13.429l-1.492-3.881-3.882-1.493A120.364 120.364 0 0 0 252.222 0c-31.627 0-61.272 12.226-83.473 34.426l-28.02 28.018-70.56 8.82-51.993 51.988 44.1 17.64-9.812 9.812 14.241 14.24-22.05 30.869 68.539 68.534 30.87-22.049 14.241 14.24 9.813-9.812 17.64 44.098 51.991-51.99 8.82-70.555 28.02-28.019c32.972-32.97 43.323-82.755 26.371-126.831z" fill="#397BD5" fill-rule="nonzero"/><path fill="#4493FF" fill-rule="nonzero" d="M66.705 164.945l-22.05 30.868 68.539 68.534 30.87-22.049z"/><path fill="#4493FF" d="M115.215 239.91l-46.122-46.12 11.024-15.433 50.533 50.53z"/><path d="M261.36 127.03L158.304 230.08l-33.075-33.074 72.765-72.76-13.23-13.23L112 183.777l-33.075-33.073L181.979 47.655c18.667-18.666 43.613-28.946 70.243-28.946 11.169 0 22.15 1.809 32.702 5.382 12.239 36.175 3.207 76.17-23.564 102.94z" fill="#397BD5"/><path fill="#4493FF" fill-rule="nonzero" d="M24 272.132L56.132 240l12.852 12.852-32.131 32.132zM72.155 308.771L59.302 295.92l32.132-32.132 12.852 12.853zM.229 236.846l32.131-32.132 12.853 12.852-32.132 32.132z"/><path fill="#4493FF" d="M185 111.5l13 13-87 86.5-13-13z"/><path d="M236.294 45.441c-7.286 0-14.136 2.836-19.288 7.986-10.636 10.63-10.636 27.927 0 38.557 5.152 5.15 12.002 7.987 19.288 7.987 7.287 0 14.136-2.837 19.288-7.987 10.636-10.63 10.636-27.927 0-38.557-5.152-5.15-12.001-7.986-19.288-7.986z" fill="#4493FF" fill-rule="nonzero"/></g></svg>