<svg xmlns="http://www.w3.org/2000/svg" viewBox="0 0 416.07 498.36"><defs><style>.a{fill:#397bd5}.b{fill:#4493ff}.c{fill:none;stroke:#eff6ff;stroke-width:14px}.d{fill:#eff6ff}</style></defs><title>Asset 111</title><path class="a" d="M248.81 24.51l-5.68-2.22L237.7 25a175.25 175.25 0 0 0-51.4 38.92 170.93 170.93 0 0 0-44.73 124.22l2.85 58-59.82 85 5.29 107.54 62.52-30.25 1 20.3 29.46-1.33 11.82 54.32 141.8-6.39 6.43-55.15 29.46-1.33-1-20.29 29.68 9.8-6.4-129.9-31.27-42.17-2.85-58c-3.36-68.21-47.21-128.57-111.73-153.78z"/><path class="b" d="M182.94 426.46l11.8 54.24 141.59-6.38 6.42-55.06-159.81 7.2z"/><path class="b" d="M313.04 448.65l-95.83 4.32-5.94-27.27 105-4.74-3.23 27.69z"/><path class="a" d="M332.08 181l10.46 212.51-68.22 3.07-7.38-150-27.29 1.23 7.39 150-68.22 3.08-10.46-212.56a143.36 143.36 0 0 1 37.55-104.18 147.43 147.43 0 0 1 37.89-29.94c51.14 22.43 85.56 71.53 88.28 126.79z"/><path class="b" d="M242.5 247.09l26.88-1.26 7.98 179.38-26.88 1.27-7.98-179.39zM219.35 126.33a39.19 39.19 0 0 0-10.2 28.45 39.77 39.77 0 0 0 41.44 37.7 39.36 39.36 0 0 0 37.56-41.28 39.77 39.77 0 0 0-41.44-37.7 39.13 39.13 0 0 0-27.36 12.83z"/><path class="c" d="M333.84 8.75l21.78 462 53.12-2.5-11-233L354.33 7.39z"/><rect class="d" x="245.21" y="48.73" width="87.42" height="15.28" rx="3" ry="3" transform="rotate(-2.7 288.868 56.27)"/><rect class="d" x="262.33" y="411.8" width="87.42" height="15.28" rx="3" ry="3" transform="rotate(-2.7 305.995 419.469)"/><path class="d" d="M349.358 409.984l59.414-2.802.72 15.263-59.414 2.802zM346.898 357.917l59.414-2.801.72 15.263-59.414 2.801zM344.476 306.44l59.414-2.803.72 15.263-59.414 2.802zM342.016 254.383l59.414-2.802.72 15.263-59.414 2.802zM339.56 202.31l56.71-2.68 3.43 15.15-59.42 2.8-.72-15.27zM337.11 150.25l45.45-2.16 2.9 15.18-47.63 2.25-.72-15.27zM334.65 98.19l41.13-1.95 2.69 15.18-43.1 2.04-.72-15.27zM332.2 46.13l34.63-1.65 2.38 15.2-36.29 1.72-.72-15.27z"/><ellipse class="d" cx="133.31" cy="433.66" rx="40.5" ry="52.5" transform="rotate(-2.7 133.285 433.655)"/><path class="d" d="M61.9 458.55c63.41-3 57.64-30.28 56-64.21s-29.28-60.19-61.83-58.65-57.6 30.31-56 64.21 29.29 60.19 61.83 58.65z"/><ellipse class="d" cx="193.26" cy="452.36" rx="43.5" ry="39" transform="rotate(-2.7 193.348 452.266)"/><ellipse class="d" cx="235.94" cy="465.86" rx="29.5" ry="32.5" transform="rotate(-2.7 235.91 465.794)"/></svg>