<svg width="28" height="28" viewBox="0 0 28 28" xmlns="http://www.w3.org/2000/svg"><path d="M27.786 14.576a2.453 2.453 0 0 0-3.24-1.239l-1.18.53-3.023-6.76 1.18-.527a2.452 2.452 0 0 0-2.002-4.477l-1.18.528-.527-1.18C17.26.214 15.81-.34 14.574.214a2.451 2.451 0 0 0-1.236 3.238l.528 1.18-6.76 3.023-.527-1.18a2.452 2.452 0 1 0-4.476 2.001l.527 1.18-1.179.528a2.452 2.452 0 0 0 2.002 4.476l1.18-.53 3.023 6.761-1.18.527a2.452 2.452 0 0 0 2.001 4.478l1.18-.528.528 1.18a2.45 2.45 0 1 0 4.475-2l-.527-1.182 6.76-3.022.527 1.176a2.45 2.45 0 1 0 4.476-2l-.527-1.178 1.178-.53a2.45 2.45 0 0 0 1.239-3.237zM12.13 18.891L9.108 12.13l6.76-3.022 3.023 6.76-6.76 3.023z" fill-rule="nonzero" fill="#FFF"/></svg>