<svg width="38" height="32" viewBox="0 0 38 32" xmlns="http://www.w3.org/2000/svg"><path d="M34.734 7.953c-.297 13.808-8.906 23.414-21.968 24.014-5.344.3-9.204-1.5-12.766-3.602 3.86.6 8.906-.9 11.578-3.302-3.86-.3-6.234-2.401-7.422-5.703 1.188.3 2.375 0 3.266 0-3.563-1.201-5.938-3.302-6.235-8.105.891.6 2.079.9 3.266.9C1.781 10.655 0 4.951 2.078 1.35c3.86 4.202 8.61 7.805 16.328 8.405C16.328 1.349 27.61-3.154 32.063 2.55c2.078-.3 3.562-1.201 5.046-1.801-.593 2.1-1.78 3.301-3.265 4.502 1.484-.3 2.969-.6 4.156-1.2-.297 1.5-1.781 2.701-3.266 3.902z" fill-rule="nonzero" fill="#FFF"/></svg>