<svg width="25" height="23" viewBox="0 0 25 23" xmlns="http://www.w3.org/2000/svg"><g fill-rule="nonzero" fill="#397BD5"><path d="M23.473 11.238a.684.684 0 0 0-.687.687v6.244a3.08 3.08 0 0 1-3.076 3.076H4.65a3.08 3.08 0 0 1-3.077-3.076v-6.346a.684.684 0 0 0-.687-.687.684.684 0 0 0-.686.687v6.346a4.454 4.454 0 0 0 4.45 4.449h15.06a4.454 4.454 0 0 0 4.45-4.45v-6.243a.687.687 0 0 0-.687-.687z"/><path d="M11.697 17.167a.69.69 0 0 0 .483.203.67.67 0 0 0 .483-.203l4.362-4.363a.684.684 0 0 0 0-.97.684.684 0 0 0-.97 0l-3.189 3.192V1.1a.684.684 0 0 0-.686-.686.684.684 0 0 0-.687.686v13.927L8.3 11.833a.684.684 0 0 0-.971 0 .684.684 0 0 0 0 .971l4.368 4.363z"/></g></svg>