<svg width="62" height="62" viewBox="0 0 62 62" xmlns="http://www.w3.org/2000/svg" xmlns:xlink="http://www.w3.org/1999/xlink"><defs><filter x="-.4%" y="-1.5%" width="100.8%" height="105.8%" filterUnits="objectBoundingBox" id="a"><feOffset dy="4" in="SourceAlpha" result="shadowOffsetOuter1"/><feGaussianBlur stdDeviation="2" in="shadowOffsetOuter1" result="shadowBlurOuter1"/><feMerge><feMergeNode in="SourceGraphic"/></feMerge></filter><path id="b" d="M0 .296v53.406h53.82V.296z"/></defs><g transform="translate(4)" filter="url(#a)" fill="none" fill-rule="evenodd"><mask id="c" fill="#fff"><use xlink:href="#b"/></mask><path d="M35.303 44.67l-5.69-6.69s5.034-4.481-2.703-4.481c-7.738 0-2.703 4.48-2.703 4.48l-5.69 6.692c-3.481-3.639-6.853-9.226-6.853-15.491 0-10.965 9.472-19.853 15.246-19.853 5.747 0 15.245 8.888 15.245 19.853 0 6.265-3.371 11.852-6.852 15.49M26.91.297C12.048.296 0 12.251 0 26.999c0 14.747 12.048 26.703 26.91 26.703s26.91-11.956 26.91-26.703C53.82 12.25 41.771.296 26.91.296" fill="#ECF4FF" mask="url(#c)"/><path d="M23.106 21.923c0 2.085 1.703 3.775 3.804 3.775 2.1 0 3.803-1.69 3.803-3.775 0-2.084-1.703-3.774-3.803-3.774-2.1 0-3.804 1.69-3.804 3.774z" fill="#EFF6FF" mask="url(#c)"/></g></svg>